<svg xmlns="http://www.w3.org/2000/svg" width="512" height="512" viewBox="0 0 512 512" fill="none">
  <defs>
    <linearGradient id="bg" x1="64" y1="64" x2="448" y2="448" gradientUnits="userSpaceOnUse">
      <stop stop-color="#0F172A" />
      <stop offset="1" stop-color="#0B1220" />
    </linearGradient>
    <linearGradient id="accent" x1="128" y1="120" x2="392" y2="392" gradientUnits="userSpaceOnUse">
      <stop stop-color="#34D399" />
      <stop offset="1" stop-color="#38BDF8" />
    </linearGradient>
  </defs>
  <rect x="24" y="24" width="464" height="464" rx="116" fill="url(#bg)"/>
  <rect x="112" y="120" width="288" height="264" rx="40" fill="#08101D" stroke="rgba(255,255,255,0.12)"/>
  <rect x="148" y="164" width="216" height="32" rx="16" fill="url(#accent)" opacity="0.95"/>
  <rect x="148" y="224" width="112" height="112" rx="24" fill="#0F172A" stroke="#34D399" stroke-width="12"/>
  <path d="M204 248V312" stroke="#34D399" stroke-width="18" stroke-linecap="round"/>
  <path d="M172 280H236" stroke="#34D399" stroke-width="18" stroke-linecap="round"/>
  <rect x="284" y="228" width="80" height="20" rx="10" fill="#CBD5E1" opacity="0.9"/>
  <rect x="284" y="268" width="56" height="20" rx="10" fill="#64748B"/>
  <rect x="284" y="308" width="92" height="20" rx="10" fill="#64748B"/>
  <circle cx="382" cy="128" r="44" fill="#09111E" stroke="#38BDF8" stroke-width="12"/>
  <path d="M382 102V154" stroke="#38BDF8" stroke-width="16" stroke-linecap="round"/>
  <path d="M356 128H408" stroke="#38BDF8" stroke-width="16" stroke-linecap="round"/>
</svg>
